<mxfile host="app.diagrams.net" modified="2021-08-02T17:18:46.235Z" agent="5.0 (X11)" etag="haMApaeB2MbBdTha9GDK" version="14.9.3" type="github">
  <diagram id="wLJY2JxTPAPCyqu1ovc7" name="Page-1">
    <mxGraphModel dx="2370" dy="1258" grid="1" gridSize="10" guides="1" tooltips="1" connect="1" arrows="1" fold="1" page="1" pageScale="1" pageWidth="827" pageHeight="1169" math="0" shadow="0">
      <root>
        <mxCell id="0" />
        <mxCell id="1" parent="0" />
        <mxCell id="JK384I4514vAyyxiERsS-2" value="" style="endArrow=none;dashed=1;html=1;" edge="1" parent="1">
          <mxGeometry width="50" height="50" relative="1" as="geometry">
            <mxPoint x="40" y="40" as="sourcePoint" />
            <mxPoint x="720" y="40" as="targetPoint" />
          </mxGeometry>
        </mxCell>
        <mxCell id="JK384I4514vAyyxiERsS-4" value="" style="endArrow=none;dashed=1;html=1;" edge="1" parent="1">
          <mxGeometry width="50" height="50" relative="1" as="geometry">
            <mxPoint x="40" y="1120" as="sourcePoint" />
            <mxPoint x="720" y="1120" as="targetPoint" />
          </mxGeometry>
        </mxCell>
        <mxCell id="JK384I4514vAyyxiERsS-5" value="" style="endArrow=none;dashed=1;html=1;" edge="1" parent="1">
          <mxGeometry width="50" height="50" relative="1" as="geometry">
            <mxPoint x="40" y="40" as="sourcePoint" />
            <mxPoint x="40" y="1120" as="targetPoint" />
          </mxGeometry>
        </mxCell>
        <mxCell id="JK384I4514vAyyxiERsS-6" value="" style="endArrow=none;dashed=1;html=1;" edge="1" parent="1">
          <mxGeometry width="50" height="50" relative="1" as="geometry">
            <mxPoint x="720" y="45" as="sourcePoint" />
            <mxPoint x="720" y="1125" as="targetPoint" />
          </mxGeometry>
        </mxCell>
        <mxCell id="JK384I4514vAyyxiERsS-7" value="340x540" style="text;html=1;align=center;verticalAlign=middle;resizable=0;points=[];autosize=1;strokeColor=none;" vertex="1" parent="1">
          <mxGeometry x="660" y="1100" width="60" height="20" as="geometry" />
        </mxCell>
      </root>
    </mxGraphModel>
  </diagram>
</mxfile>
